<svg width="367" height="56" viewBox="0 0 367 56" fill="none" xmlns="http://www.w3.org/2000/svg">
<rect width="367" height="56" rx="28" fill="white" fill-opacity="0.15"/>
<path d="M49.992 36V19.2H57.168C59.504 19.2 61.32 19.744 62.616 20.832C63.912 21.904 64.56 23.392 64.56 25.296C64.56 26.544 64.264 27.624 63.672 28.536C63.08 29.432 62.24 30.12 61.152 30.6C60.064 31.08 58.768 31.32 57.264 31.32H52.152L53.88 29.616V36H49.992ZM60.672 36L56.472 29.904H60.624L64.872 36H60.672ZM53.88 30.048L52.152 28.224H57.048C58.248 28.224 59.144 27.968 59.736 27.456C60.328 26.928 60.624 26.208 60.624 25.296C60.624 24.368 60.328 23.648 59.736 23.136C59.144 22.624 58.248 22.368 57.048 22.368H52.152L53.88 20.52V30.048ZM73.7844 36.192C72.3124 36.192 71.0164 35.904 69.8964 35.328C68.7924 34.752 67.9364 33.968 67.3284 32.976C66.7204 31.968 66.4164 30.824 66.4164 29.544C66.4164 28.248 66.7124 27.104 67.3044 26.112C67.9124 25.104 68.7364 24.32 69.7764 23.76C70.8164 23.184 71.9924 22.896 73.3044 22.896C74.5684 22.896 75.7044 23.168 76.7124 23.712C77.7364 24.24 78.5444 25.008 79.1364 26.016C79.7284 27.008 80.0244 28.2 80.0244 29.592C80.0244 29.736 80.0164 29.904 80.0004 30.096C79.9844 30.272 79.9684 30.44 79.9524 30.6H69.4644V28.416H77.9844L76.5444 29.064C76.5444 28.392 76.4084 27.808 76.1364 27.312C75.8644 26.816 75.4884 26.432 75.0084 26.16C74.5284 25.872 73.9684 25.728 73.3284 25.728C72.6884 25.728 72.1204 25.872 71.6244 26.16C71.1444 26.432 70.7684 26.824 70.4964 27.336C70.2244 27.832 70.0884 28.424 70.0884 29.112V29.688C70.0884 30.392 70.2404 31.016 70.5444 31.56C70.8644 32.088 71.3044 32.496 71.8644 32.784C72.4404 33.056 73.1124 33.192 73.8804 33.192C74.5684 33.192 75.1684 33.088 75.6804 32.88C76.2084 32.672 76.6884 32.36 77.1204 31.944L79.1124 34.104C78.5204 34.776 77.7764 35.296 76.8804 35.664C75.9844 36.016 74.9524 36.192 73.7844 36.192ZM82.5171 36V23.088H86.0931V26.616L85.4211 25.584C85.8691 24.704 86.5011 24.04 87.3171 23.592C88.1491 23.128 89.0931 22.896 90.1491 22.896C91.3331 22.896 92.3651 23.2 93.2451 23.808C94.1411 24.4 94.7331 25.312 95.0211 26.544L93.7011 26.184C94.1331 25.176 94.8211 24.376 95.7651 23.784C96.7251 23.192 97.8211 22.896 99.0531 22.896C100.077 22.896 100.981 23.104 101.765 23.52C102.565 23.92 103.189 24.544 103.637 25.392C104.101 26.224 104.333 27.296 104.333 28.608V36H100.589V29.184C100.589 28.144 100.373 27.376 99.9411 26.88C99.5091 26.384 98.9011 26.136 98.1171 26.136C97.5731 26.136 97.0851 26.264 96.6531 26.52C96.2211 26.76 95.8851 27.128 95.6451 27.624C95.4051 28.12 95.2851 28.752 95.2851 29.52V36H91.5411V29.184C91.5411 28.144 91.3251 27.376 90.8931 26.88C90.4771 26.384 89.8771 26.136 89.0931 26.136C88.5491 26.136 88.0611 26.264 87.6291 26.52C87.1971 26.76 86.8611 27.128 86.6211 27.624C86.3811 28.12 86.2611 28.752 86.2611 29.52V36H82.5171ZM113.927 36.192C112.551 36.192 111.327 35.904 110.255 35.328C109.199 34.752 108.359 33.968 107.735 32.976C107.127 31.968 106.823 30.824 106.823 29.544C106.823 28.248 107.127 27.104 107.735 26.112C108.359 25.104 109.199 24.32 110.255 23.76C111.327 23.184 112.551 22.896 113.927 22.896C115.287 22.896 116.503 23.184 117.575 23.76C118.647 24.32 119.487 25.096 120.095 26.088C120.703 27.08 121.007 28.232 121.007 29.544C121.007 30.824 120.703 31.968 120.095 32.976C119.487 33.968 118.647 34.752 117.575 35.328C116.503 35.904 115.287 36.192 113.927 36.192ZM113.927 33.12C114.551 33.12 115.111 32.976 115.607 32.688C116.103 32.4 116.495 31.992 116.783 31.464C117.071 30.92 117.215 30.28 117.215 29.544C117.215 28.792 117.071 28.152 116.783 27.624C116.495 27.096 116.103 26.688 115.607 26.4C115.111 26.112 114.551 25.968 113.927 25.968C113.303 25.968 112.743 26.112 112.247 26.4C111.751 26.688 111.351 27.096 111.047 27.624C110.759 28.152 110.615 28.792 110.615 29.544C110.615 30.28 110.759 30.92 111.047 31.464C111.351 31.992 111.751 32.4 112.247 32.688C112.743 32.976 113.303 33.12 113.927 33.12ZM129.053 36.192C127.837 36.192 126.741 35.92 125.765 35.376C124.789 34.816 124.013 34.04 123.437 33.048C122.877 32.056 122.597 30.888 122.597 29.544C122.597 28.184 122.877 27.008 123.437 26.016C124.013 25.024 124.789 24.256 125.765 23.712C126.741 23.168 127.837 22.896 129.053 22.896C130.141 22.896 131.093 23.136 131.909 23.616C132.725 24.096 133.357 24.824 133.805 25.8C134.253 26.776 134.477 28.024 134.477 29.544C134.477 31.048 134.261 32.296 133.829 33.288C133.397 34.264 132.773 34.992 131.957 35.472C131.157 35.952 130.189 36.192 129.053 36.192ZM129.701 33.12C130.309 33.12 130.861 32.976 131.357 32.688C131.853 32.4 132.245 31.992 132.533 31.464C132.837 30.92 132.989 30.28 132.989 29.544C132.989 28.792 132.837 28.152 132.533 27.624C132.245 27.096 131.853 26.688 131.357 26.4C130.861 26.112 130.309 25.968 129.701 25.968C129.077 25.968 128.517 26.112 128.021 26.4C127.525 26.688 127.125 27.096 126.821 27.624C126.533 28.152 126.389 28.792 126.389 29.544C126.389 30.28 126.533 30.92 126.821 31.464C127.125 31.992 127.525 32.4 128.021 32.688C128.517 32.976 129.077 33.12 129.701 33.12ZM133.085 36V33.36L133.157 29.52L132.917 25.704V18.192H136.661V36H133.085ZM146.534 36.192C145.062 36.192 143.766 35.904 142.646 35.328C141.542 34.752 140.686 33.968 140.078 32.976C139.47 31.968 139.166 30.824 139.166 29.544C139.166 28.248 139.462 27.104 140.054 26.112C140.662 25.104 141.486 24.32 142.526 23.76C143.566 23.184 144.742 22.896 146.054 22.896C147.318 22.896 148.454 23.168 149.462 23.712C150.486 24.24 151.294 25.008 151.886 26.016C152.478 27.008 152.774 28.2 152.774 29.592C152.774 29.736 152.766 29.904 152.75 30.096C152.734 30.272 152.718 30.44 152.702 30.6H142.214V28.416H150.734L149.294 29.064C149.294 28.392 149.158 27.808 148.886 27.312C148.614 26.816 148.238 26.432 147.758 26.16C147.278 25.872 146.718 25.728 146.078 25.728C145.438 25.728 144.87 25.872 144.374 26.16C143.894 26.432 143.518 26.824 143.246 27.336C142.974 27.832 142.838 28.424 142.838 29.112V29.688C142.838 30.392 142.99 31.016 143.294 31.56C143.614 32.088 144.054 32.496 144.614 32.784C145.19 33.056 145.862 33.192 146.63 33.192C147.318 33.192 147.918 33.088 148.43 32.88C148.958 32.672 149.438 32.36 149.87 31.944L151.862 34.104C151.27 34.776 150.526 35.296 149.63 35.664C148.734 36.016 147.702 36.192 146.534 36.192ZM155.267 36V18.192H159.011V36H155.267ZM162.486 36V23.088H166.23V36H162.486ZM164.358 21.288C163.67 21.288 163.11 21.088 162.678 20.688C162.246 20.288 162.03 19.792 162.03 19.2C162.03 18.608 162.246 18.112 162.678 17.712C163.11 17.312 163.67 17.112 164.358 17.112C165.046 17.112 165.606 17.304 166.038 17.688C166.47 18.056 166.686 18.536 166.686 19.128C166.686 19.752 166.47 20.272 166.038 20.688C165.622 21.088 165.062 21.288 164.358 21.288ZM169.705 36V23.088H173.281V26.664L172.609 25.584C173.073 24.72 173.737 24.056 174.601 23.592C175.465 23.128 176.449 22.896 177.553 22.896C178.577 22.896 179.489 23.104 180.289 23.52C181.105 23.92 181.745 24.544 182.209 25.392C182.673 26.224 182.905 27.296 182.905 28.608V36H179.161V29.184C179.161 28.144 178.929 27.376 178.465 26.88C178.017 26.384 177.377 26.136 176.545 26.136C175.953 26.136 175.417 26.264 174.937 26.52C174.473 26.76 174.105 27.136 173.833 27.648C173.577 28.16 173.449 28.816 173.449 29.616V36H169.705ZM192.464 40.848C191.248 40.848 190.072 40.696 188.936 40.392C187.816 40.104 186.88 39.664 186.128 39.072L187.616 36.384C188.16 36.832 188.848 37.184 189.68 37.44C190.528 37.712 191.36 37.848 192.176 37.848C193.504 37.848 194.464 37.552 195.056 36.96C195.664 36.368 195.968 35.488 195.968 34.32V32.376L196.208 29.136L196.16 25.872V23.088H199.712V33.84C199.712 36.24 199.088 38.008 197.84 39.144C196.592 40.28 194.8 40.848 192.464 40.848ZM191.888 35.376C190.688 35.376 189.6 35.12 188.624 34.608C187.664 34.08 186.888 33.352 186.296 32.424C185.72 31.48 185.432 30.384 185.432 29.136C185.432 27.872 185.72 26.776 186.296 25.848C186.888 24.904 187.664 24.176 188.624 23.664C189.6 23.152 190.688 22.896 191.888 22.896C192.976 22.896 193.936 23.12 194.768 23.568C195.6 24 196.248 24.68 196.712 25.608C197.176 26.52 197.408 27.696 197.408 29.136C197.408 30.56 197.176 31.736 196.712 32.664C196.248 33.576 195.6 34.256 194.768 34.704C193.936 35.152 192.976 35.376 191.888 35.376ZM192.632 32.304C193.288 32.304 193.872 32.176 194.384 31.92C194.896 31.648 195.296 31.272 195.584 30.792C195.872 30.312 196.016 29.76 196.016 29.136C196.016 28.496 195.872 27.944 195.584 27.48C195.296 27 194.896 26.632 194.384 26.376C193.872 26.104 193.288 25.968 192.632 25.968C191.976 25.968 191.392 26.104 190.88 26.376C190.368 26.632 189.96 27 189.656 27.48C189.368 27.944 189.224 28.496 189.224 29.136C189.224 29.76 189.368 30.312 189.656 30.792C189.96 31.272 190.368 31.648 190.88 31.92C191.392 32.176 191.976 32.304 192.632 32.304ZM210.258 36V19.2H222.954V22.32H214.122V32.88H223.266V36H210.258ZM213.834 28.992V25.968H221.922V28.992H213.834ZM224.299 36L230.083 28.416L230.011 30.48L224.467 23.088H228.667L232.171 27.912L230.587 27.96L234.211 23.088H238.195L232.627 30.408V28.392L238.387 36H234.139L230.467 30.864L232.027 31.08L228.379 36H224.299ZM247.837 36.192C246.749 36.192 245.797 35.952 244.981 35.472C244.165 34.992 243.525 34.264 243.061 33.288C242.613 32.296 242.389 31.048 242.389 29.544C242.389 28.024 242.605 26.776 243.037 25.8C243.469 24.824 244.093 24.096 244.909 23.616C245.725 23.136 246.701 22.896 247.837 22.896C249.053 22.896 250.141 23.176 251.101 23.736C252.077 24.28 252.845 25.048 253.405 26.04C253.981 27.032 254.269 28.2 254.269 29.544C254.269 30.904 253.981 32.08 253.405 33.072C252.845 34.064 252.077 34.832 251.101 35.376C250.141 35.92 249.053 36.192 247.837 36.192ZM240.205 40.656V23.088H243.781V25.728L243.709 29.568L243.949 33.384V40.656H240.205ZM247.189 33.12C247.813 33.12 248.365 32.976 248.845 32.688C249.341 32.4 249.733 31.992 250.021 31.464C250.325 30.92 250.477 30.28 250.477 29.544C250.477 28.792 250.325 28.152 250.021 27.624C249.733 27.096 249.341 26.688 248.845 26.4C248.365 26.112 247.813 25.968 247.189 25.968C246.565 25.968 246.005 26.112 245.509 26.4C245.013 26.688 244.621 27.096 244.333 27.624C244.045 28.152 243.901 28.792 243.901 29.544C243.901 30.28 244.045 30.92 244.333 31.464C244.621 31.992 245.013 32.4 245.509 32.688C246.005 32.976 246.565 33.12 247.189 33.12ZM263.183 36.192C261.711 36.192 260.415 35.904 259.295 35.328C258.191 34.752 257.335 33.968 256.727 32.976C256.119 31.968 255.815 30.824 255.815 29.544C255.815 28.248 256.111 27.104 256.703 26.112C257.311 25.104 258.135 24.32 259.175 23.76C260.215 23.184 261.391 22.896 262.703 22.896C263.967 22.896 265.103 23.168 266.111 23.712C267.135 24.24 267.943 25.008 268.535 26.016C269.127 27.008 269.423 28.2 269.423 29.592C269.423 29.736 269.415 29.904 269.399 30.096C269.383 30.272 269.367 30.44 269.351 30.6H258.863V28.416H267.383L265.943 29.064C265.943 28.392 265.807 27.808 265.535 27.312C265.263 26.816 264.887 26.432 264.407 26.16C263.927 25.872 263.367 25.728 262.727 25.728C262.087 25.728 261.519 25.872 261.023 26.16C260.543 26.432 260.167 26.824 259.895 27.336C259.623 27.832 259.487 28.424 259.487 29.112V29.688C259.487 30.392 259.639 31.016 259.943 31.56C260.263 32.088 260.703 32.496 261.263 32.784C261.839 33.056 262.511 33.192 263.279 33.192C263.967 33.192 264.567 33.088 265.079 32.88C265.607 32.672 266.087 32.36 266.519 31.944L268.511 34.104C267.919 34.776 267.175 35.296 266.279 35.664C265.383 36.016 264.351 36.192 263.183 36.192ZM271.916 36V23.088H275.492V26.736L274.988 25.68C275.372 24.768 275.988 24.08 276.836 23.616C277.684 23.136 278.716 22.896 279.932 22.896V26.352C279.772 26.336 279.628 26.328 279.5 26.328C279.372 26.312 279.236 26.304 279.092 26.304C278.068 26.304 277.236 26.6 276.596 27.192C275.972 27.768 275.66 28.672 275.66 29.904V36H271.916ZM287.883 36.192C286.363 36.192 285.179 35.808 284.331 35.04C283.483 34.256 283.059 33.096 283.059 31.56V20.232H286.803V31.512C286.803 32.056 286.947 32.48 287.235 32.784C287.523 33.072 287.915 33.216 288.411 33.216C289.003 33.216 289.507 33.056 289.923 32.736L290.931 35.376C290.547 35.648 290.083 35.856 289.539 36C289.011 36.128 288.459 36.192 287.883 36.192ZM281.067 25.968V23.088H290.019V25.968H281.067ZM297.377 36.192C296.273 36.192 295.209 36.064 294.185 35.808C293.177 35.536 292.377 35.2 291.785 34.8L293.033 32.112C293.625 32.48 294.321 32.784 295.121 33.024C295.937 33.248 296.737 33.36 297.521 33.36C298.385 33.36 298.993 33.256 299.345 33.048C299.713 32.84 299.897 32.552 299.897 32.184C299.897 31.88 299.753 31.656 299.465 31.512C299.193 31.352 298.825 31.232 298.361 31.152C297.897 31.072 297.385 30.992 296.825 30.912C296.281 30.832 295.729 30.728 295.169 30.6C294.609 30.456 294.097 30.248 293.633 29.976C293.169 29.704 292.793 29.336 292.505 28.872C292.233 28.408 292.097 27.808 292.097 27.072C292.097 26.256 292.329 25.536 292.793 24.912C293.273 24.288 293.961 23.8 294.857 23.448C295.753 23.08 296.825 22.896 298.073 22.896C298.953 22.896 299.849 22.992 300.761 23.184C301.673 23.376 302.433 23.656 303.041 24.024L301.793 26.688C301.169 26.32 300.537 26.072 299.897 25.944C299.273 25.8 298.665 25.728 298.073 25.728C297.241 25.728 296.633 25.84 296.249 26.064C295.865 26.288 295.673 26.576 295.673 26.928C295.673 27.248 295.809 27.488 296.081 27.648C296.369 27.808 296.745 27.936 297.209 28.032C297.673 28.128 298.177 28.216 298.721 28.296C299.281 28.36 299.841 28.464 300.401 28.608C300.961 28.752 301.465 28.96 301.913 29.232C302.377 29.488 302.753 29.848 303.041 30.312C303.329 30.76 303.473 31.352 303.473 32.088C303.473 32.888 303.233 33.6 302.753 34.224C302.273 34.832 301.577 35.312 300.665 35.664C299.769 36.016 298.673 36.192 297.377 36.192Z" fill="white"/>
</svg>
